<?xml version="1.0" standalone="no"?>
<!DOCTYPE svg PUBLIC "-//W3C//DTD SVG 20010904//EN"
 "http://www.w3.org/TR/2001/REC-SVG-20010904/DTD/svg10.dtd">
<svg version="1.0" xmlns="http://www.w3.org/2000/svg"
 width="486.000000pt" height="599.000000pt" viewBox="0 0 486.000000 599.000000"
 preserveAspectRatio="xMidYMid meet">

<g transform="translate(0.000000,599.000000) scale(0.100000,-0.100000)"
fill="#000000" stroke="none">
<path d="M2225 5976 c-383 -57 -713 -235 -1007 -545 -408 -429 -662 -1035
-728 -1736 -23 -246 -8 -623 36 -880 142 -843 620 -1565 1229 -1857 l90 -43
-200 -12 c-233 -14 -336 -32 -423 -74 -147 -71 -109 -145 73 -142 50 1 134 9
187 18 54 9 112 15 130 13 29 -3 33 -7 41 -43 11 -48 1 -336 -14 -387 -19 -71
-103 -117 -339 -188 -320 -96 -670 -73 -949 62 -86 41 -171 111 -197 160 -26
50 -44 168 -44 288 l0 120 77 -63 c191 -153 408 -216 740 -217 241 0 434 34
563 101 103 53 136 97 103 138 l-18 22 -126 -25 c-198 -41 -290 -31 -342 36
-16 19 -29 27 -40 22 -14 -5 -17 -25 -19 -127 l-3 -122 -170 1 c-235 1 -380
33 -547 121 -87 45 -193 146 -238 227 -31 55 -50 70 -50 41 0 -33 42 -386 56
-470 22 -135 28 -148 95 -203 111 -90 268 -156 463 -193 184 -36 454 -19 675
41 100 27 244 99 303 150 46 39 47 43 50 103 l3 62 140 22 c243 37 406 46 699
40 219 -6 307 -12 461 -34 l190 -28 5 -64 c5 -60 8 -66 49 -103 144 -127 524
-220 836 -204 234 11 453 90 600 213 64 54 71 63 82 113 24 109 74 549 64 567
-4 7 -20 -14 -40 -52 -119 -231 -490 -381 -876 -355 l-80 5 -3 114 c-3 133
-22 177 -50 115 -7 -15 -31 -33 -59 -46 -41 -18 -59 -20 -137 -15 -50 4 -122
13 -161 22 -38 9 -82 18 -96 21 -33 7 -61 -19 -57 -55 10 -87 331 -183 662
-197 324 -15 564 55 774 225 l62 51 0 -108 c0 -114 -26 -265 -54 -320 -53
-102 -324 -220 -583 -253 -234 -30 -726 68 -841 167 l-40 33 -6 118 c-4 65
-12 164 -17 221 -8 78 -8 106 1 117 22 26 78 28 205 6 68 -11 156 -21 195 -21
62 0 74 3 95 25 32 31 31 40 -3 74 -56 57 -285 105 -554 117 l-157 7 102 51
c187 94 328 197 483 351 832 827 1031 2376 453 3528 -304 605 -783 1008 -1328
1118 -126 25 -357 33 -476 15z m410 -51 c318 -51 611 -202 868 -445 419 -397
686 -958 784 -1650 25 -179 25 -692 0 -869 -99 -695 -370 -1262 -790 -1656
-235 -221 -494 -361 -788 -427 -138 -31 -426 -33 -559 -5 -461 100 -848 382
-1154 842 -133 200 -263 489 -346 766 -123 416 -158 948 -91 1404 76 518 279
1006 570 1375 233 294 559 526 871 620 190 57 448 76 635 45z m-570 -5080
c244 -56 476 -56 703 0 94 23 123 25 312 25 225 0 385 -16 493 -51 74 -23 100
-41 95 -66 -8 -42 -81 -41 -320 4 -70 14 -94 14 -126 5 -61 -19 -68 -46 -52
-198 7 -69 10 -127 7 -130 -3 -4 -64 1 -135 10 -248 31 -409 39 -722 32 -215
-4 -349 -12 -455 -26 -82 -11 -158 -20 -168 -20 -17 0 -18 8 -11 130 8 146 0
170 -61 196 -29 12 -51 10 -194 -13 -137 -22 -167 -24 -201 -14 -86 26 -31 75
119 107 122 25 202 31 406 33 181 1 211 -1 310 -24z m-487 -182 c6 -39 -62
-85 -193 -130 -52 -18 -101 -26 -187 -30 l-118 -6 0 25 c0 14 3 52 6 85 l7 60
61 -19 c85 -27 232 -20 331 15 79 29 89 29 93 0z m1842 -4 c111 -28 252 -31
299 -7 18 10 37 15 42 12 5 -3 9 -42 9 -86 l0 -81 -65 7 c-36 4 -116 19 -178
35 -183 46 -266 91 -237 126 16 20 28 19 130 -6z"/>
<path d="M2270 5909 c-746 -82 -1381 -753 -1619 -1710 -133 -535 -132 -1090 4
-1624 208 -818 711 -1433 1337 -1633 265 -86 567 -88 835 -7 627 191 1146 815
1353 1628 74 292 101 516 101 832 0 315 -27 541 -101 830 -108 424 -293 789
-553 1091 -263 306 -616 518 -958 578 -114 20 -294 27 -399 15z m425 -67 c132
-29 205 -55 350 -127 169 -84 292 -173 436 -315 192 -190 320 -371 450 -635
152 -312 237 -604 285 -980 24 -190 25 -595 0 -780 -50 -388 -145 -706 -303
-1018 -287 -566 -726 -935 -1243 -1044 -117 -24 -380 -24 -503 0 -289 58 -555
202 -791 427 -668 638 -942 1787 -676 2835 92 361 240 681 444 955 88 119 295
328 404 408 213 157 454 258 696 292 98 14 349 4 451 -18z"/>
<path d="M2436 5758 c-3 -12 -8 -57 -11 -98 -3 -41 -8 -94 -11 -116 l-6 -42
84 -6 c45 -4 95 -9 111 -12 25 -5 27 -3 27 24 l0 30 -75 7 c-76 7 -80 10 -69
50 5 19 11 20 67 14 72 -7 77 -6 77 26 0 22 -5 24 -71 31 -55 5 -69 10 -65 21
4 8 6 19 6 25 0 6 27 7 75 3 l75 -7 0 25 c0 14 -3 28 -7 30 -5 3 -52 8 -105
12 -96 7 -97 7 -102 -17z"/>
<path d="M2171 5759 c-30 -5 -57 -11 -59 -14 -6 -6 29 -251 38 -266 11 -17
143 7 174 32 83 65 37 242 -65 254 -19 2 -58 -1 -88 -6z m104 -69 c20 -22 31
-107 17 -128 -10 -15 -80 -34 -86 -23 -2 3 -9 39 -15 80 -9 60 -9 76 1 83 23
14 64 8 83 -12z"/>
<path d="M2856 5582 c-79 -159 -81 -142 24 -190 50 -23 95 -42 100 -42 5 0 14
9 20 20 9 18 3 23 -60 55 -67 34 -69 36 -58 60 6 14 14 25 18 25 4 0 34 -12
65 -26 46 -20 60 -22 66 -12 17 26 8 39 -46 65 -55 27 -62 36 -47 61 7 10 23
6 73 -18 59 -28 65 -29 77 -13 6 9 12 20 12 25 0 8 -84 53 -153 81 l-37 16
-54 -107z"/>
<path d="M1724 5589 c-33 -17 -63 -34 -68 -39 -9 -9 121 -253 133 -248 155 73
189 131 138 229 -27 51 -78 89 -117 89 -16 0 -54 -14 -86 -31z m121 -55 c13
-14 29 -41 35 -60 13 -39 5 -56 -40 -79 -29 -15 -23 -22 -79 77 l-32 57 28 15
c40 22 61 19 88 -10z"/>
<path d="M3099 5448 c-41 -57 -78 -108 -82 -114 -4 -6 27 -35 74 -68 65 -47
83 -55 94 -46 25 21 17 37 -35 74 -58 42 -59 34 24 145 l55 74 -23 18 c-13 11
-26 19 -28 19 -2 0 -38 -46 -79 -102z"/>
<path d="M1483 5420 c-13 -10 -23 -23 -23 -29 0 -7 21 -72 47 -146 l46 -134
28 20 c25 18 27 22 17 50 -9 26 -7 34 13 56 38 40 55 46 84 27 25 -16 27 -16
51 6 13 13 21 27 17 31 -5 3 -64 36 -133 72 -124 65 -125 65 -147 47z m106
-99 c12 -8 12 -12 2 -25 -18 -22 -26 -20 -39 9 -22 48 -15 51 37 16z"/>
<path d="M2243 5415 c-236 -43 -431 -152 -633 -354 -322 -322 -521 -775 -592
-1341 -16 -135 -16 -515 0 -650 70 -562 269 -1016 587 -1336 247 -250 516
-374 809 -374 684 0 1256 676 1396 1652 18 125 27 403 19 556 -56 959 -571
1728 -1239 1848 -93 17 -252 16 -347 -1z m365 -50 c210 -44 390 -145 571 -319
307 -298 513 -749 588 -1286 21 -153 23 -535 4 -685 -68 -537 -256 -978 -547
-1284 -199 -209 -416 -334 -646 -371 -108 -18 -312 -8 -413 19 -177 47 -376
169 -530 325 -547 553 -741 1611 -455 2476 200 606 577 1018 1025 1120 101 23
306 26 403 5z"/>
<path d="M2322 5039 c-92 -46 -179 -173 -272 -394 -49 -117 -61 -138 -156
-270 -39 -55 -91 -138 -114 -185 -24 -47 -52 -92 -64 -100 -55 -38 -118 -108
-142 -156 -32 -65 -36 -161 -11 -211 22 -41 73 -83 103 -83 23 0 24 -3 24 -59
0 -33 4 -62 9 -65 5 -3 11 -20 14 -38 6 -39 -9 -245 -24 -341 -6 -37 -8 -78
-5 -91 8 -31 61 -54 87 -38 28 18 32 15 25 -22 -6 -30 -3 -37 24 -56 19 -14
30 -30 30 -46 0 -18 9 -27 37 -39 48 -20 53 -29 53 -97 0 -50 3 -59 30 -81 48
-41 92 -50 204 -44 56 3 112 9 124 13 24 7 24 6 17 -52 -12 -109 -27 -169 -67
-266 -36 -88 -49 -107 -139 -203 -55 -59 -108 -124 -119 -146 -21 -39 -30
-149 -10 -119 5 8 10 29 10 46 0 41 41 102 144 213 63 68 98 117 127 175 40
84 79 215 79 271 0 79 9 94 74 126 70 35 206 134 206 150 0 12 1 13 -70 -43
-130 -103 -344 -161 -478 -129 -65 16 -88 42 -106 121 -9 37 -22 69 -32 75
-70 42 -68 65 7 65 35 0 49 4 49 14 0 19 -16 23 -82 20 -64 -2 -75 6 -75 54 0
23 5 32 17 32 22 0 50 31 50 57 0 11 -8 27 -18 36 -23 21 -39 22 -22 2 20 -24
7 -46 -35 -62 -110 -41 -124 -29 -101 94 8 49 20 134 27 191 10 96 10 107 -9
160 -16 42 -23 94 -28 194 -4 76 -10 135 -14 133 -4 -3 -11 -41 -14 -85 -4
-44 -11 -80 -16 -80 -18 0 -69 72 -76 106 -8 44 1 115 20 152 25 48 106 119
106 92 0 -6 -18 -28 -40 -50 -22 -22 -40 -47 -40 -56 0 -15 2 -15 27 2 l28 18
-29 -35 c-37 -43 -61 -98 -48 -111 6 -6 21 9 40 41 35 56 64 78 80 58 5 -6 19
-31 31 -54 56 -111 125 -153 264 -161 l88 -5 47 -54 c26 -30 56 -59 68 -63 12
-5 45 -50 77 -108 81 -142 140 -197 252 -232 22 -7 46 -17 53 -23 9 -7 16 -7
24 1 16 16 58 15 58 -1 0 -19 -29 -42 -65 -54 -20 -6 -31 -17 -33 -33 -3 -21
-1 -22 29 -16 43 8 58 22 80 74 22 52 48 54 61 5 26 -100 189 -174 316 -143
86 20 173 115 172 187 -1 24 -4 21 -26 -25 -38 -77 -120 -132 -198 -132 -86 0
-212 74 -218 128 -4 40 -54 60 -168 68 -152 11 -225 56 -304 188 -41 68 -44
86 -16 86 12 0 29 -15 44 -39 13 -21 43 -54 66 -73 41 -36 119 -66 139 -54 16
10 2 33 -27 44 -15 5 -48 17 -74 27 -33 11 -54 27 -68 49 -34 56 -21 71 36 41
34 -17 68 -19 95 -5 27 15 24 30 -6 30 -15 0 -38 6 -53 14 -66 34 -67 112 -1
175 21 21 39 44 39 50 0 7 -9 29 -20 50 l-19 38 30 41 c16 23 39 44 49 47 40
13 86 -39 61 -69 -6 -7 -8 -16 -4 -19 3 -4 -6 -18 -20 -31 -38 -35 -46 -75
-19 -96 l21 -17 -19 -39 c-30 -57 -26 -100 10 -134 17 -16 41 -30 53 -32 19
-3 23 -11 28 -56 22 -176 238 -242 368 -112 43 44 42 71 -1 34 -102 -85 -255
-70 -314 33 -23 38 -26 51 -20 99 6 53 6 54 -14 44 -18 -10 -26 -6 -55 23 -39
39 -42 54 -20 97 34 65 110 47 135 -33 8 -26 19 -47 24 -47 5 0 26 16 47 35
45 40 50 41 147 18 l72 -17 0 -84 0 -84 64 7 c48 5 70 3 94 -9 39 -20 77 -70
97 -127 18 -49 21 -149 6 -177 -5 -10 -8 -28 -5 -40 12 -45 -142 -159 -238
-177 -41 -8 -124 7 -175 32 -20 9 -53 39 -76 67 -36 46 -39 48 -33 21 8 -30
16 -43 78 -117 26 -31 46 -72 68 -143 33 -105 74 -187 121 -245 33 -39 29 -44
-41 -55 -80 -13 -233 -66 -345 -120 -127 -61 -260 -158 -391 -286 -62 -60
-109 -97 -145 -113 -66 -29 -78 -42 -122 -129 l-34 -69 41 -30 c61 -45 138
-77 265 -109 122 -31 189 -35 347 -20 115 11 179 40 267 122 156 142 287 422
287 610 0 99 -11 125 -90 219 -64 77 -117 174 -143 266 l-15 52 81 4 c142 9
261 71 304 158 46 95 46 268 0 356 -36 70 -124 120 -194 110 l-43 -6 0 85 c0
85 0 86 62 203 95 181 107 205 123 268 25 96 20 139 -25 228 -22 43 -40 92
-40 109 -1 93 -57 235 -126 316 -39 46 -149 129 -214 161 -25 13 -65 38 -88
56 -24 18 -81 48 -125 65 -67 26 -100 33 -177 36 -82 4 -101 1 -138 -18z m285
-50 c34 -11 83 -36 110 -57 26 -21 84 -58 127 -82 99 -56 253 -203 289 -275
28 -58 45 -135 28 -135 -24 0 -8 -58 36 -128 57 -92 65 -147 35 -234 -31 -89
-75 -145 -123 -158 -58 -16 -155 -9 -151 10 2 8 5 47 7 86 l3 71 -96 7 -96 7
-41 -41 -42 -41 -22 63 c-13 35 -38 86 -56 114 -78 119 -77 114 -84 370 -5
177 -10 237 -20 246 -11 11 -12 7 -6 -27 4 -22 10 -134 14 -250 7 -231 9 -238
86 -365 32 -52 75 -158 75 -182 0 -12 -54 -1 -95 18 -41 19 -68 63 -110 177
-43 120 -60 154 -93 190 -23 24 -62 37 -62 20 0 -4 18 -34 39 -67 60 -92 94
-174 99 -236 4 -49 1 -60 -22 -87 -79 -94 -238 -75 -313 36 -57 84 -2 245 77
226 40 -10 46 -22 27 -54 -9 -15 -14 -31 -10 -35 26 -26 93 25 93 71 -1 37
-19 59 -63 78 -85 35 -125 14 -174 -94 -29 -63 -34 -84 -30 -124 8 -93 102
-184 212 -207 75 -16 145 5 208 61 54 47 59 41 17 -22 -47 -70 -88 -92 -173
-93 -121 0 -230 64 -281 166 -28 56 -32 93 -16 147 5 19 8 37 5 39 -2 2 -21
-14 -43 -37 l-39 -41 -76 0 c-43 0 -77 4 -77 9 0 5 19 38 43 73 24 35 78 114
120 176 42 62 120 198 172 305 120 243 169 302 270 328 42 11 149 0 222 -22z
m-640 -953 c44 -149 181 -242 347 -234 l69 3 18 -33 c15 -30 16 -37 3 -67 -8
-19 -14 -55 -14 -80 0 -61 -21 -60 -85 5 -36 36 -65 55 -109 70 -34 11 -87 36
-119 56 -62 38 -241 100 -234 81 7 -22 68 -56 121 -67 29 -6 62 -17 72 -25 17
-13 15 -14 -23 -15 -92 0 -193 62 -228 141 -21 46 -18 53 21 39 23 -9 31 -8
40 4 9 13 13 12 24 -12 l12 -27 11 23 c21 46 -26 98 -99 109 -39 6 -64 19 -64
33 0 14 61 30 114 30 28 0 58 5 66 10 27 18 43 6 57 -44z m883 25 c19 -5 47
-12 63 -15 25 -6 27 -10 27 -60 0 -43 -6 -61 -31 -95 -34 -48 -32 -60 8 -41
29 13 213 27 213 16 0 -3 -18 -43 -41 -87 -35 -70 -43 -80 -62 -76 -138 32
-131 32 -190 -2 -58 -33 -60 -33 -71 11 -7 30 -50 58 -90 58 -34 0 -76 17 -76
31 0 7 25 38 55 70 30 32 55 63 55 71 0 30 23 91 41 109 21 21 46 24 99 10z
m-385 -242 c13 -24 14 -33 4 -45 -11 -13 -14 -12 -25 8 -16 27 -18 68 -4 68 5
0 17 -14 25 -31z m637 -1342 c-2 -9 4 -24 13 -33 8 -8 15 -31 15 -49 0 -28 -6
-37 -30 -50 -37 -19 -39 -35 -5 -35 22 0 25 -4 25 -34 0 -19 -14 -60 -31 -92
-17 -33 -32 -72 -33 -89 -2 -45 -113 -235 -136 -235 -10 0 -26 -10 -35 -22
-14 -21 -14 -23 0 -26 23 -5 18 -17 -25 -55 -47 -43 -96 -69 -169 -91 -152
-45 -548 14 -545 81 0 21 -1 21 -27 7 -27 -13 -30 -12 -64 17 -41 37 -43 49
-11 121 22 49 30 57 89 86 41 21 106 70 184 139 190 171 286 238 430 302 161
70 363 104 355 58z"/>
<path d="M2159 3781 c13 -12 49 -28 80 -37 33 -10 69 -29 89 -47 23 -23 32
-27 32 -15 0 34 -102 93 -197 113 l-28 6 24 -20z"/>
<path d="M2990 2461 c-15 -29 -13 -31 24 -31 22 0 36 6 40 17 13 33 -46 46
-64 14z"/>
<path d="M2865 2420 c-18 -20 -17 -20 7 -20 14 0 36 9 49 20 l24 19 -31 1
c-19 0 -38 -8 -49 -20z"/>
<path d="M3057 2406 c-3 -8 -22 -19 -41 -26 -20 -6 -36 -18 -36 -26 0 -22 48
-17 62 6 7 11 20 20 28 20 17 0 40 19 40 32 0 14 -48 9 -53 -6z"/>
<path d="M2764 2396 c-29 -13 -54 -46 -34 -46 19 0 79 34 84 47 7 16 -10 16
-50 -1z"/>
<path d="M2910 2385 l-23 -25 30 0 c32 0 59 22 48 40 -10 17 -30 12 -55 -15z"/>
<path d="M2814 2356 c-36 -16 -53 -46 -26 -46 22 0 82 37 82 50 0 13 -18 12
-56 -4z"/>
<path d="M2618 2320 c-17 -17 -28 -34 -24 -37 7 -7 76 45 76 58 0 18 -22 9
-52 -21z"/>
<path d="M2876 2324 c-9 -23 -8 -24 18 -24 35 0 56 10 56 26 0 20 -66 19 -74
-2z"/>
<path d="M2983 2305 c-27 -23 -27 -24 -6 -25 22 0 53 24 53 41 0 16 -18 10
-47 -16z"/>
<path d="M2686 2301 c-16 -11 -33 -27 -38 -35 -8 -14 -5 -14 19 -5 31 11 63
37 63 51 0 13 -12 10 -44 -11z"/>
<path d="M2743 2266 c-15 -13 -25 -27 -21 -31 9 -9 70 26 76 43 6 20 -25 13
-55 -12z"/>
<path d="M2832 2245 c-20 -19 -32 -35 -27 -35 20 0 75 40 75 55 0 22 -6 19
-48 -20z"/>
<path d="M3025 2258 c-9 -14 -11 -24 -5 -26 18 -6 37 6 43 27 7 29 -17 27 -38
-1z"/>
<path d="M2492 2235 c-16 -14 -32 -34 -35 -46 -5 -20 -4 -20 25 3 36 28 66 68
50 68 -6 0 -24 -11 -40 -25z"/>
<path d="M2909 2239 c-11 -11 -19 -23 -16 -25 9 -10 57 16 57 31 0 21 -16 19
-41 -6z"/>
<path d="M2562 2220 c-32 -30 -27 -43 8 -25 17 9 30 22 30 30 0 21 -12 19 -38
-5z"/>
<path d="M2650 2211 c-15 -29 -13 -32 15 -19 14 6 25 17 25 25 0 20 -28 16
-40 -6z"/>
<path d="M3044 2216 c-15 -12 -16 -17 -7 -27 10 -10 15 -9 28 1 16 13 21 40 7
40 -5 0 -17 -6 -28 -14z"/>
<path d="M2713 2184 c-49 -38 -43 -61 7 -28 22 15 40 33 40 40 0 20 -11 17
-47 -12z"/>
<path d="M2918 2180 c-26 -23 -29 -29 -15 -30 31 0 87 28 87 44 0 26 -37 18
-72 -14z"/>
<path d="M2795 2172 c-30 -25 -49 -52 -37 -52 14 0 72 49 72 61 0 14 -13 11
-35 -9z"/>
<path d="M2471 2136 c-19 -20 -32 -39 -28 -42 8 -9 56 23 63 41 13 33 -4 33
-35 1z"/>
<path d="M2547 2126 c-32 -34 -37 -62 -9 -47 28 15 44 38 40 58 -3 16 -7 14
-31 -11z"/>
<path d="M2965 2128 c-14 -21 -14 -23 0 -26 24 -5 42 4 55 27 9 19 8 21 -14
21 -14 0 -32 -9 -41 -22z"/>
<path d="M2373 2128 c-6 -7 -16 -24 -23 -38 -13 -24 -13 -24 10 -9 13 8 30 25
38 37 13 19 13 22 -1 22 -8 0 -19 -6 -24 -12z"/>
<path d="M2833 2134 c-7 -3 -22 -21 -33 -39 -12 -19 -40 -43 -65 -55 -44 -21
-98 -81 -60 -67 9 4 21 7 27 7 5 0 29 19 53 43 23 23 58 51 76 62 49 30 51 68
2 49z"/>
<path d="M2596 2085 c-26 -24 -34 -45 -17 -45 16 0 61 41 61 56 0 20 -14 17
-44 -11z"/>
<path d="M2878 2083 c-28 -33 -30 -43 -9 -43 22 0 61 32 61 50 0 16 -36 11
-52 -7z"/>
<path d="M2660 2065 c-13 -14 -20 -28 -16 -32 9 -10 36 8 54 35 13 19 13 22 0
22 -8 0 -25 -11 -38 -25z"/>
<path d="M2980 2068 c-39 -15 -54 -48 -22 -48 21 0 56 34 51 48 -3 6 -13 6
-29 0z"/>
<path d="M2344 2031 c-33 -20 -49 -39 -41 -47 8 -9 84 34 90 51 8 21 -11 19
-49 -4z"/>
<path d="M2251 2014 c-31 -25 -40 -44 -22 -44 13 0 71 50 71 61 0 16 -17 10
-49 -17z"/>
<path d="M2418 2011 c-18 -16 -30 -32 -26 -36 10 -10 78 34 78 51 0 22 -16 17
-52 -15z"/>
<path d="M2768 1990 c-17 -17 -28 -33 -25 -37 10 -9 72 32 75 50 5 26 -16 20
-50 -13z"/>
<path d="M2477 1978 c-22 -22 -28 -33 -18 -36 17 -6 65 30 69 52 5 25 -17 19
-51 -16z"/>
<path d="M2556 1969 c-14 -17 -26 -35 -26 -40 0 -15 37 8 54 33 33 47 10 53
-28 7z"/>
<path d="M2838 1971 c-24 -21 -30 -33 -22 -41 13 -13 77 28 82 53 5 26 -24 21
-60 -12z"/>
<path d="M2940 1955 c-28 -30 -23 -39 14 -26 16 7 26 18 26 31 0 27 -12 25
-40 -5z"/>
<path d="M2136 1929 c-39 -46 -33 -66 10 -31 24 19 41 62 26 62 -6 0 -22 -14
-36 -31z"/>
<path d="M2220 1940 c-22 -22 -26 -40 -10 -40 19 0 60 32 60 46 0 20 -27 17
-50 -6z"/>
<path d="M2602 1935 c-18 -15 -37 -36 -43 -47 -10 -18 -9 -19 18 -5 36 19 66
52 61 68 -2 7 -16 1 -36 -16z"/>
<path d="M2312 1925 c-34 -28 -41 -45 -19 -45 18 0 60 46 55 60 -2 8 -16 2
-36 -15z"/>
<path d="M2655 1900 c-16 -16 -25 -33 -22 -37 10 -9 61 30 65 51 5 24 -11 19
-43 -14z"/>
<path d="M2739 1888 c-23 -20 -30 -33 -21 -36 14 -4 48 22 63 50 15 28 -5 21
-42 -14z"/>
<path d="M2853 1900 c-17 -10 -37 -28 -43 -39 -9 -18 -8 -21 10 -21 24 0 70
42 70 65 0 19 1 19 -37 -5z"/>
<path d="M2361 1886 c-13 -14 -21 -30 -19 -36 5 -15 58 27 58 46 0 21 -13 17
-39 -10z"/>
<path d="M2440 1888 c-30 -31 -47 -63 -28 -53 42 25 68 48 68 61 0 21 -16 17
-40 -8z"/>
<path d="M2138 1863 c-32 -35 -47 -76 -24 -67 19 7 59 70 54 85 -2 5 -15 -3
-30 -18z"/>
<path d="M2072 1868 c-6 -7 -14 -27 -18 -43 -7 -28 -6 -29 10 -16 26 21 39 52
29 62 -6 6 -14 5 -21 -3z"/>
<path d="M2205 1845 c-35 -34 -31 -51 5 -25 17 12 30 28 30 36 0 20 -7 18 -35
-11z"/>
<path d="M2461 1824 c-23 -30 -28 -49 -8 -38 21 12 57 47 57 56 0 18 -30 7
-49 -18z"/>
<path d="M2555 1828 c-34 -18 -59 -58 -36 -58 13 0 71 50 71 61 0 12 -10 11
-35 -3z"/>
<path d="M2630 1812 c-39 -39 -40 -57 -1 -37 28 14 49 50 37 62 -3 3 -19 -8
-36 -25z"/>
<path d="M2226 1795 c-33 -35 -37 -68 -5 -39 25 22 43 54 35 61 -3 3 -16 -7
-30 -22z"/>
<path d="M2725 1802 c-23 -19 -39 -52 -26 -52 16 0 61 41 61 56 0 18 -10 17
-35 -4z"/>
<path d="M2302 1790 c-37 -23 -48 -69 -12 -50 21 11 56 58 48 65 -2 2 -18 -5
-36 -15z"/>
<path d="M2794 1776 c-31 -26 -28 -42 5 -31 19 6 38 41 28 51 -3 3 -18 -6 -33
-20z"/>
<path d="M2367 1773 c-9 -2 -24 -17 -32 -33 -17 -34 -18 -40 -6 -40 13 0 71
56 71 69 0 11 -3 12 -33 4z"/>
<path d="M2426 1721 c-42 -44 -28 -61 17 -21 20 17 37 36 37 41 0 18 -27 8
-54 -20z"/>
<path d="M2510 1723 c-13 -17 -17 -29 -10 -31 14 -5 50 27 50 45 0 21 -17 15
-40 -14z"/>
<path d="M2601 1713 c-12 -14 -19 -28 -16 -31 8 -8 55 28 55 43 0 23 -16 18
-39 -12z"/>
<path d="M2710 1727 c-27 -14 -40 -47 -18 -47 16 0 58 36 58 50 0 13 -10 12
-40 -3z"/>
<path d="M1850 3553 c-42 -22 -49 -62 -12 -78 12 -5 22 -13 22 -18 0 -4 12
-19 27 -33 18 -17 27 -36 29 -62 1 -20 8 -54 16 -74 11 -29 17 -35 26 -26 7 7
12 26 12 44 0 18 6 35 13 37 6 3 1 6 -13 6 -19 1 -10 9 40 34 36 17 65 38 65
46 0 19 -78 59 -138 70 -53 10 -62 15 -52 30 4 7 53 11 128 12 144 1 123 17
-33 25 -79 5 -101 2 -130 -13z m130 -94 c11 -6 6 -8 -17 -9 -39 0 -65 9 -57
21 5 9 48 2 74 -12z m30 -48 c0 -12 -29 -23 -41 -15 -18 10 -9 24 16 24 14 0
25 -4 25 -9z m-60 -11 c0 -5 -2 -10 -4 -10 -3 0 -8 5 -11 10 -3 6 -1 10 4 10
6 0 11 -4 11 -10z"/>
<path d="M3173 3348 c1 -69 -13 -93 -73 -123 -51 -26 -69 -52 -27 -40 41 13
89 48 108 79 22 37 25 108 5 125 -12 10 -14 4 -13 -41z"/>
<path d="M3227 3267 c-10 -36 -69 -101 -107 -117 -31 -13 -42 -50 -15 -50 43
0 140 127 133 173 -3 20 -4 19 -11 -6z"/>
<path d="M3440 5230 c-26 -26 -26 -78 2 -135 17 -34 19 -48 10 -57 -30 -30
-91 42 -63 76 8 10 5 18 -14 36 -25 23 -25 23 -40 4 -32 -43 -11 -124 44 -163
39 -28 83 -27 117 3 34 29 36 74 5 134 -26 51 -26 62 -2 62 26 0 44 -25 39
-55 -4 -17 2 -31 18 -46 l22 -21 17 26 c23 34 12 77 -30 121 -39 42 -92 48
-125 15z"/>
<path d="M1270 5203 c-23 -20 -50 -50 -62 -66 l-22 -30 40 -34 c21 -19 70 -60
108 -91 l68 -56 44 50 c74 84 80 134 22 199 -66 76 -135 86 -198 28z m128 -52
c49 -36 59 -63 37 -97 -27 -41 -41 -39 -105 16 l-61 53 27 28 c35 36 51 36
102 0z"/>
<path d="M1125 5024 c-9 -14 -15 -27 -13 -29 2 -1 54 -38 117 -80 l114 -78 18
24 c10 13 19 26 19 29 0 4 -89 65 -210 143 -27 17 -28 17 -45 -9z"/>
<path d="M3570 4962 c-69 -14 -127 -27 -129 -28 -2 -2 2 -16 10 -30 12 -22 18
-25 49 -20 29 5 38 2 49 -17 8 -12 20 -31 28 -43 12 -18 11 -24 -7 -47 -20
-25 -20 -28 -4 -52 9 -14 19 -25 23 -25 11 0 171 227 171 242 -1 22 -26 48
-46 47 -10 -1 -75 -13 -144 -27z m100 -50 c0 -5 -10 -18 -23 -30 -18 -17 -26
-19 -35 -10 -20 20 -14 36 16 41 15 2 30 5 35 6 4 0 7 -3 7 -7z"/>
<path d="M1032 4876 c-39 -44 -48 -86 -28 -124 30 -59 81 -57 146 4 50 47 80
53 80 17 0 -32 -29 -63 -59 -63 -20 0 -31 -7 -39 -24 -14 -31 -8 -36 42 -36
47 1 65 12 95 60 39 65 21 131 -42 153 -25 9 -77 -15 -111 -52 -30 -31 -66
-42 -66 -18 0 22 30 57 50 57 18 0 40 27 40 49 0 6 -18 11 -39 11 -32 0 -44
-6 -69 -34z"/>
<path d="M3723 4739 c-68 -32 -123 -63 -123 -69 0 -14 79 -170 86 -170 3 0 14
5 24 10 19 10 19 12 -5 66 -14 31 -25 60 -25 64 0 4 43 27 95 51 52 24 95 49
94 54 0 6 -5 20 -12 31 -12 21 -14 21 -134 -37z"/>
<path d="M927 4652 c-23 -25 -79 -152 -74 -166 7 -17 246 -111 256 -100 5 5
11 18 15 29 5 17 -2 24 -44 40 -77 30 -65 53 41 74 49 10 59 16 69 42 7 16 10
32 7 35 -3 4 -35 0 -71 -8 -63 -14 -66 -14 -66 4 0 54 -97 90 -133 50z m67
-58 c14 -14 14 -19 1 -52 -20 -46 -18 -45 -48 -31 -23 10 -24 14 -14 38 10 24
36 61 43 61 1 0 10 -7 18 -16z"/>
<path d="M3824 4530 c-60 -51 -110 -99 -112 -106 -2 -7 2 -22 8 -33 10 -20 20
-21 160 -21 83 0 150 2 150 4 0 1 -5 17 -11 34 l-11 32 -101 -7 -102 -6 75 63
c41 34 76 66 78 71 2 4 -3 20 -11 34 l-14 27 -109 -92z"/>
<path d="M789 4318 c-17 -55 -29 -101 -27 -103 6 -5 247 -75 260 -75 14 0 73
184 64 199 -3 5 -15 11 -26 14 -17 4 -23 -4 -41 -67 -20 -67 -23 -72 -45 -68
-35 6 -37 16 -19 77 17 61 15 70 -15 78 -17 4 -22 -3 -36 -51 -19 -68 -26 -76
-52 -68 -20 7 -20 7 -1 69 24 80 24 84 -6 89 -24 5 -26 1 -56 -94z"/>
<path d="M3760 4296 c0 -29 13 -46 34 -46 32 0 43 -11 57 -59 13 -42 12 -44
-14 -65 -23 -18 -25 -26 -19 -51 5 -17 11 -30 15 -30 3 0 58 38 121 85 118 87
132 106 104 142 -9 11 -46 19 -129 27 -151 14 -169 14 -169 -3z m189 -62 l32
-7 -33 -22 c-29 -20 -34 -21 -40 -6 -17 41 -11 45 41 35z"/>
<path d="M738 4139 c-4 -27 0 -33 41 -56 143 -81 141 -76 25 -88 -87 -9 -104
-18 -104 -54 l0 -27 147 20 147 21 7 33 7 32 -125 75 c-68 41 -128 75 -132 75
-5 0 -11 -14 -13 -31z"/>
<path d="M3955 4046 c-66 -12 -120 -26 -120 -31 6 -102 37 -179 81 -195 61
-24 150 -5 193 41 22 24 27 83 13 164 -9 50 -11 50 -167 21z m120 -82 c5 -29
2 -41 -13 -57 -25 -25 -94 -38 -124 -23 -21 11 -47 70 -36 81 3 3 38 12 79 19
41 7 77 14 80 15 4 0 10 -15 14 -35z"/>
<path d="M688 3850 c-4 -27 -1 -30 26 -35 29 -5 246 -35 253 -35 2 0 3 15 3
33 l0 33 -128 17 c-161 21 -149 22 -154 -13z"/>
<path d="M3980 3768 c-74 -20 -110 -84 -95 -165 19 -103 171 -139 252 -58 30
30 33 38 33 93 0 50 -4 66 -26 91 -23 28 -78 52 -114 50 -8 0 -31 -5 -50 -11z
m115 -83 c14 -13 25 -33 25 -45 0 -38 -44 -70 -95 -70 -53 0 -85 25 -85 68 0
66 105 98 155 47z"/>
<path d="M670 3721 l0 -31 63 -1 c106 -1 108 -9 12 -57 -78 -38 -85 -44 -85
-71 0 -28 2 -30 53 -35 215 -22 236 -20 237 26 0 14 -14 18 -80 24 l-81 7 83
46 c63 35 84 52 86 70 2 13 0 27 -5 31 -4 5 -70 12 -145 16 l-138 7 0 -32z"/>
<path d="M660 3425 l0 -36 103 3 c56 1 108 -1 115 -5 15 -10 16 -59 0 -75 -7
-7 -37 -12 -69 -12 -31 0 -77 -3 -103 -6 -43 -6 -46 -9 -46 -35 l0 -29 93 0
c120 0 162 12 183 52 25 47 14 125 -20 155 -25 21 -36 23 -142 23 l-114 0 0
-35z"/>
<path d="M3890 3430 c0 -28 2 -29 60 -36 33 -4 60 -9 60 -11 0 -18 -27 -46
-70 -72 -45 -28 -50 -35 -50 -66 0 -19 4 -35 9 -35 5 0 32 15 60 34 l51 35 30
-31 c26 -25 36 -29 63 -24 56 11 69 34 74 133 l6 90 -39 6 c-22 4 -87 7 -146
7 l-108 0 0 -30z m228 -87 c-3 -44 -5 -48 -28 -48 -23 0 -25 4 -28 48 -3 47
-3 47 28 47 31 0 31 0 28 -47z"/>
<path d="M786 3064 c-13 -35 -6 -145 14 -196 11 -29 20 -56 20 -59 0 -4 -14
-9 -30 -13 -35 -7 -48 -29 -29 -52 9 -11 22 -14 43 -10 l31 6 1 -68 c1 -74 23
-152 53 -191 l19 -25 12 59 c12 56 11 64 -17 147 l-30 87 28 6 c34 8 53 29 45
51 -5 13 -15 15 -46 10 l-40 -6 0 77 c0 61 -5 89 -24 129 -27 58 -41 71 -50
48z"/>
<path d="M4012 3049 c-28 -48 -42 -104 -42 -176 l0 -63 -40 0 c-51 0 -54 -23
-6 -51 l33 -19 -23 -66 c-25 -67 -28 -110 -15 -179 l7 -40 32 50 c30 47 32 56
32 142 l0 93 48 -3 c42 -2 47 0 50 20 3 22 -7 30 -60 47 -16 5 -15 11 8 78 26
74 28 144 6 184 -8 14 -12 11 -30 -17z"/>
<path d="M995 2333 c-100 -52 -120 -145 -48 -217 19 -19 36 -26 64 -26 37 0
39 2 39 30 0 25 -4 30 -25 30 -25 0 -65 31 -65 51 0 25 25 52 63 70 54 24 72
24 97 -3 24 -26 25 -45 5 -68 -13 -14 -11 -19 9 -45 l24 -29 21 34 c25 42 26
71 4 117 -31 67 -119 93 -188 56z"/>
<path d="M3653 2261 c-10 -28 -7 -32 91 -130 56 -56 106 -101 113 -101 6 0 16
13 21 30 10 26 8 32 -14 49 l-24 19 20 46 c17 42 22 46 53 46 27 0 36 5 46 26
6 14 9 30 6 35 -4 5 -72 9 -153 9 l-148 0 -11 -29z m161 -39 c2 -4 -1 -17 -8
-30 l-12 -22 -29 30 -29 30 37 0 c19 0 38 -3 41 -8z"/>
<path d="M1123 2054 c-62 -36 -113 -70 -113 -76 0 -15 100 -178 109 -178 4 0
15 6 25 13 16 12 15 17 -20 76 -36 61 -37 64 -19 77 30 22 40 17 69 -36 32
-60 38 -63 62 -45 18 14 18 16 -14 74 -32 60 -32 60 -11 71 11 7 22 10 23 8 2
-2 18 -29 37 -60 35 -60 48 -68 69 -43 9 11 3 30 -37 100 -26 46 -52 85 -58
85 -5 0 -61 -30 -122 -66z"/>
<path d="M3583 2075 c-76 -33 -96 -144 -38 -205 39 -40 104 -64 151 -55 76 14
123 103 90 171 -18 39 -25 41 -56 16 -22 -18 -22 -19 -5 -45 20 -31 15 -50
-19 -72 -21 -14 -28 -14 -59 -1 -19 8 -45 24 -56 35 -39 39 -18 101 34 101 27
0 45 47 23 61 -18 12 -27 11 -65 -6z"/>
<path d="M1268 1817 c-59 -45 -107 -84 -107 -87 0 -3 7 -15 17 -27 l17 -23 58
46 c32 25 61 44 63 41 2 -2 -10 -41 -27 -86 -30 -79 -30 -83 -14 -102 10 -10
22 -19 28 -19 12 0 217 160 217 170 0 4 -9 15 -20 25 -18 17 -21 16 -77 -28
-31 -25 -59 -44 -61 -42 -2 2 10 41 27 86 29 76 30 84 16 105 -9 13 -19 24
-23 24 -4 0 -55 -37 -114 -83z"/>
<path d="M3416 1853 c-21 -29 -29 -20 103 -117 99 -72 105 -75 123 -60 10 10
18 22 18 29 0 8 -161 133 -214 167 -6 3 -19 -5 -30 -19z"/>
<path d="M3272 1683 l-62 -66 91 -86 c116 -108 116 -108 143 -82 l21 22 -42
39 c-55 52 -41 65 55 56 64 -6 69 -5 92 19 13 14 21 27 18 30 -3 3 -34 8 -70
12 l-65 6 1 39 c1 50 -29 78 -83 78 -31 0 -44 -8 -99 -67z m118 -8 c10 -12 8
-21 -14 -50 -31 -41 -37 -42 -62 -14 -19 21 -18 21 14 50 37 33 45 35 62 14z"/>
<path d="M1524 1679 c-19 -21 -18 -21 9 -43 15 -12 27 -25 27 -30 0 -5 -34
-43 -75 -85 l-75 -77 25 -24 26 -24 76 83 76 82 29 -27 28 -28 22 21 21 21
-68 64 c-97 91 -99 91 -121 67z"/>
<path d="M3096 1530 c-43 -33 -81 -62 -84 -64 -5 -5 156 -226 165 -226 9 0
173 123 173 130 0 4 -8 14 -18 23 -16 14 -22 12 -77 -29 l-59 -45 -18 23 c-10
13 -18 25 -18 28 0 3 23 21 50 40 52 37 59 50 35 70 -16 13 -23 10 -78 -33
-31 -24 -40 -27 -52 -17 -22 18 -18 34 13 52 15 10 40 28 55 40 28 23 28 24
10 46 l-18 22 -79 -60z"/>
<path d="M1677 1448 c-29 -46 -63 -99 -75 -119 l-22 -37 25 -16 c13 -9 26 -16
29 -16 2 0 16 20 30 45 15 25 30 45 34 45 21 0 32 -30 32 -86 0 -58 2 -64 29
-83 16 -12 32 -21 36 -21 4 0 5 32 3 70 -3 70 -3 70 23 70 36 0 79 45 79 83 0
35 -42 77 -119 120 l-50 28 -54 -83z m120 -24 c58 -44 32 -83 -33 -48 -18 10
-34 20 -34 21 0 7 24 53 28 53 3 0 20 -11 39 -26z"/>
<path d="M2930 1422 c-19 -9 -37 -17 -38 -18 -2 -1 2 -37 9 -78 6 -42 10 -79
7 -81 -2 -3 -24 22 -49 55 -24 32 -50 59 -57 60 -7 0 -28 -7 -47 -15 l-35 -14
26 -58 c14 -32 39 -90 56 -130 30 -71 30 -71 59 -61 16 5 29 11 29 13 0 2 -14
33 -30 71 -17 37 -29 68 -27 70 2 2 23 -23 47 -56 46 -61 64 -70 92 -47 15 11
15 20 3 87 -7 41 -12 76 -10 78 1 1 15 -27 30 -63 16 -36 32 -68 36 -71 4 -2
19 0 32 5 l25 10 -56 130 c-31 72 -59 130 -62 130 -3 0 -21 -8 -40 -17z"/>
<path d="M1968 1344 c-62 -33 -90 -163 -48 -216 25 -33 79 -58 122 -58 97 0
169 130 123 221 -33 62 -132 89 -197 53z m125 -62 c45 -39 -1 -152 -63 -152
-40 0 -74 44 -66 84 17 82 76 113 129 68z"/>
<path d="M2549 1304 c-10 -3 -25 -46 -47 -142 -18 -75 -32 -141 -32 -145 0 -5
14 -7 32 -5 26 2 33 9 40 34 8 33 28 44 84 44 23 0 34 -6 42 -25 9 -18 19 -25
41 -25 16 0 32 4 35 8 2 4 -28 64 -67 132 -72 125 -84 136 -128 124z m58 -156
c-7 -4 -20 -8 -30 -8 -14 0 -16 5 -11 28 11 43 15 46 35 16 14 -21 15 -30 6
-36z"/>
<path d="M2323 753 c-32 -4 -33 -5 -33 -54 0 -49 16 -69 22 -27 2 14 13 25 28
29 23 6 21 10 -5 13 -19 2 -16 21 5 24 11 2 20 8 20 13 0 5 -1 8 -2 7 -2 0
-18 -3 -35 -5z"/>
<path d="M2377 753 c-4 -3 -7 -26 -7 -50 l0 -43 40 0 c22 0 40 5 40 10 0 6
-11 10 -25 10 -14 0 -25 5 -25 10 0 6 11 10 25 10 14 0 25 5 25 10 0 6 -11 10
-25 10 -14 0 -25 5 -25 10 0 6 11 10 25 10 14 0 25 5 25 10 0 11 -63 14 -73 3z"/>
<path d="M2470 710 l0 -50 39 0 40 0 -1 43 c0 46 -9 57 -50 57 -27 0 -28 -2
-28 -50z m55 20 c3 -5 -3 -10 -14 -10 -12 0 -21 5 -21 10 0 6 6 10 14 10 8 0
18 -4 21 -10z m-1 -39 c3 -5 0 -11 -8 -14 -15 -6 -26 1 -26 15 0 11 27 10 34
-1z"/>
<path d="M2570 706 c0 -31 5 -56 10 -56 6 0 10 9 10 20 0 11 4 20 10 20 5 0
14 -9 20 -20 6 -11 18 -20 27 -20 14 0 14 2 0 23 -12 18 -12 24 -1 35 19 17 6
42 -21 42 -13 0 -30 3 -39 6 -13 5 -16 -3 -16 -50z m52 12 c-12 -12 -35 -1
-27 12 3 5 13 6 21 3 10 -4 12 -9 6 -15z"/>
<path d="M2154 734 c3 -9 6 -31 6 -50 0 -33 1 -34 40 -34 22 0 40 5 40 10 0 6
-13 10 -30 10 -16 0 -30 5 -30 10 0 6 11 10 25 10 14 0 25 5 25 10 0 6 -11 10
-25 10 -14 0 -25 5 -25 10 0 6 11 10 25 10 14 0 25 5 25 10 0 6 -18 10 -41 10
-33 0 -40 -3 -35 -16z"/>
<path d="M2670 701 c0 -49 0 -49 36 -53 44 -5 56 10 15 18 -37 8 -41 24 -6 24
14 0 25 5 25 10 0 6 -9 10 -20 10 -11 0 -20 5 -20 10 0 6 11 10 25 10 14 0 25
5 25 10 0 6 -18 10 -40 10 l-40 0 0 -49z"/>
<path d="M2766 734 c-10 -25 -7 -94 4 -94 6 0 10 9 10 20 0 11 4 20 10 20 5 0
14 -9 20 -20 6 -11 17 -20 26 -20 12 0 12 4 4 20 -8 14 -7 25 2 40 15 24 5 35
-39 43 -23 5 -33 2 -37 -9z m54 -24 c0 -5 -7 -10 -15 -10 -8 0 -15 5 -15 10 0
6 7 10 15 10 8 0 15 -4 15 -10z"/>
<path d="M1952 728 c-17 -17 -15 -73 4 -89 11 -9 20 -10 32 -2 25 15 21 46 -8
60 l-25 13 24 0 c20 0 21 2 11 15 -15 18 -22 19 -38 3z m29 -61 c-1 -12 -15
-9 -19 4 -3 6 1 10 8 8 6 -3 11 -8 11 -12z"/>
<path d="M2054 718 c3 -13 6 -35 6 -50 0 -24 4 -28 29 -28 37 0 53 20 49 62
-3 31 -5 33 -47 36 -41 3 -43 2 -37 -20z m61 -28 c0 -16 -6 -26 -17 -28 -14
-3 -18 3 -18 28 0 25 4 31 18 28 11 -2 17 -12 17 -28z"/>
<path d="M2882 724 c-24 -17 -30 -62 -10 -82 7 -7 24 -12 40 -12 48 0 66 66
26 94 -12 9 -25 16 -28 16 -3 0 -16 -7 -28 -16z m48 -39 c0 -28 -25 -44 -42
-27 -15 15 1 52 23 52 14 0 19 -7 19 -25z"/>
<path d="M1873 715 c-17 -19 -16 -36 1 -29 11 4 16 -4 18 -28 2 -18 8 -32 13
-30 6 1 10 7 9 12 -1 6 -2 28 -2 50 -2 42 -17 51 -39 25z"/>
<path d="M2226 612 c-2 -4 -2 -27 1 -50 6 -41 6 -42 44 -42 22 0 39 5 39 10 0
6 -13 10 -30 10 -16 0 -30 5 -30 10 0 6 11 10 25 10 14 0 25 5 25 10 0 6 -11
10 -25 10 -14 0 -25 5 -25 10 0 6 11 10 25 10 14 0 25 5 25 10 0 12 -67 14
-74 2z"/>
<path d="M2372 608 c-16 -16 -15 -28 3 -28 10 0 15 -10 15 -31 0 -17 4 -28 10
-24 6 3 10 26 10 51 0 45 -13 57 -38 32z"/>
<path d="M2444 606 c-3 -8 -3 -19 0 -25 4 -5 2 -12 -4 -16 -18 -11 9 -47 33
-43 19 3 22 9 22 48 0 39 -3 45 -23 48 -13 2 -24 -3 -28 -12z m36 -56 c0 -5
-4 -10 -10 -10 -5 0 -10 5 -10 10 0 6 5 10 10 10 6 0 10 -4 10 -10z"/>
<path d="M2536 589 c-31 -36 -33 -49 -7 -49 11 0 21 -6 24 -12 3 -10 7 -10 20
1 9 7 14 18 10 25 -4 6 -6 21 -5 33 5 34 -14 35 -42 2z"/>
<path d="M2120 591 c0 -10 3 -33 6 -50 5 -25 11 -31 33 -31 34 0 51 17 51 50
0 35 -17 50 -57 50 -26 0 -33 -4 -33 -19z m65 -21 c8 -24 -1 -40 -21 -40 -9 0
-14 11 -14 30 0 35 25 42 35 10z"/>
<path d="M2615 594 c-14 -11 -16 -18 -7 -21 6 -3 12 -18 12 -34 0 -39 16 -37
24 2 13 69 7 81 -29 53z"/>
<path d="M271 2506 c-14 -16 -44 -29 -125 -52 -101 -28 -131 -83 -83 -152 27
-38 134 -125 189 -153 66 -34 68 -30 68 149 0 88 -3 174 -6 191 -7 33 -24 40
-43 17z m9 -186 c0 -118 -2 -130 -18 -130 -36 0 -151 92 -178 142 -21 40 5 63
101 92 44 13 83 24 88 25 4 1 7 -57 7 -129z"/>
<path d="M4547 2438 c-9 -112 -8 -290 1 -305 11 -17 55 5 151 77 85 64 121
108 121 147 0 51 -22 69 -129 102 -33 10 -73 28 -89 40 -17 11 -34 21 -40 21
-5 0 -12 -37 -15 -82z m103 -8 c28 -11 60 -20 71 -20 31 0 69 -43 62 -70 -13
-49 -154 -159 -188 -146 -12 4 -15 29 -15 131 0 73 4 125 10 125 5 0 32 -9 60
-20z"/>
<path d="M5 2244 c4 -32 15 -126 26 -209 31 -227 65 -281 239 -376 119 -64
162 -99 185 -146 11 -23 27 -42 36 -43 25 0 96 55 129 102 80 110 61 256 -47
363 -33 32 -87 64 -190 114 -165 81 -263 142 -334 208 l-50 46 6 -59z m173
-129 c41 -26 117 -68 170 -92 195 -92 272 -171 272 -280 0 -56 -43 -153 -84
-192 l-24 -23 -41 45 c-23 25 -74 62 -114 83 -142 74 -215 133 -252 204 -16
32 -40 165 -50 280 l-7 75 28 -26 c16 -15 62 -48 102 -74z"/>
<path d="M4780 2234 c-59 -60 -83 -75 -250 -157 -222 -109 -259 -133 -298
-193 -62 -93 -62 -200 0 -296 28 -45 113 -118 136 -118 6 0 23 23 38 50 30 55
79 92 202 154 118 60 174 120 201 221 9 36 51 352 51 389 0 27 -13 19 -80 -50z
m30 -73 c0 -65 -40 -271 -60 -311 -28 -55 -104 -117 -220 -180 -61 -33 -118
-72 -142 -98 l-40 -44 -24 23 c-13 13 -38 50 -54 83 -52 104 -35 206 48 277
43 36 49 40 212 118 58 28 141 78 185 110 44 33 83 60 88 60 4 1 7 -16 7 -38z"/>
<path d="M706 1679 c-34 -115 -125 -206 -291 -293 -104 -53 -186 -125 -243
-210 -80 -120 -92 -226 -37 -338 27 -56 86 -128 104 -128 6 0 17 15 25 33 19
45 74 93 195 173 175 115 231 183 245 299 15 120 34 478 27 498 -7 19 -11 14
-25 -34z m-35 -407 c-6 -57 -16 -113 -22 -125 -30 -57 -79 -102 -202 -186 -73
-49 -152 -108 -176 -130 -24 -22 -48 -38 -53 -35 -25 15 -61 113 -66 177 -4
60 -2 73 27 131 50 101 134 178 286 261 70 39 146 88 169 110 l41 40 3 -70 c2
-38 -2 -116 -7 -173z"/>
<path d="M4126 1705 c-3 -9 4 -129 15 -268 23 -287 28 -305 113 -391 28 -29
112 -97 187 -153 114 -84 138 -107 152 -142 9 -22 21 -41 26 -41 24 0 65 49
98 118 33 68 38 86 38 152 0 66 -4 84 -34 145 -46 93 -109 152 -265 249 -158
97 -235 167 -276 248 -16 34 -30 69 -30 80 0 22 -16 24 -24 3z m274 -345 c272
-164 360 -310 289 -484 -35 -86 -46 -89 -108 -34 -28 26 -72 58 -99 74 -122
70 -232 167 -267 234 -17 33 -31 144 -38 292 l-3 87 50 -47 c28 -26 107 -81
176 -122z"/>
<path d="M250 485 c0 -36 2 -65 4 -65 2 0 11 -3 19 -6 11 -4 16 2 19 19 3 25
4 25 36 12 24 -11 32 -20 32 -39 0 -15 8 -30 20 -36 20 -11 21 -9 18 57 -2 55
-6 68 -20 71 -13 2 -18 -3 -18 -18 0 -17 -4 -21 -17 -15 -10 4 -26 10 -35 12
-12 4 -18 15 -18 33 0 23 -15 40 -36 40 -2 0 -4 -29 -4 -65z"/>
<path d="M1392 478 c-11 -15 -72 -135 -72 -143 0 -13 23 -3 43 19 24 26 97 46
97 27 0 -13 36 -15 44 -3 3 5 -11 32 -30 60 -35 52 -61 65 -82 40z m38 -54 c0
-8 -7 -14 -15 -14 -17 0 -18 2 -9 24 7 18 24 12 24 -10z"/>
<path d="M3472 419 c2 -61 6 -74 21 -77 13 -3 17 3 17 22 0 25 2 26 38 20 28
-4 41 -2 51 10 29 35 -13 77 -92 91 l-38 7 3 -73z m88 16 c14 -17 -3 -29 -30
-20 -27 9 -27 45 0 38 10 -3 24 -11 30 -18z"/>
<path d="M4327 463 c-12 -3 -32 -34 -53 -79 -19 -42 -34 -77 -34 -80 0 -12 23
-1 43 20 24 25 87 45 87 27 0 -6 9 -11 20 -11 11 0 20 5 20 11 0 11 -59 121
-63 118 -1 -1 -10 -3 -20 -6z m13 -63 c9 -17 8 -20 -9 -20 -14 0 -18 5 -14 20
3 11 7 20 9 20 2 0 8 -9 14 -20z"/>
<path d="M455 408 c-31 -47 -33 -53 -18 -59 10 -4 23 -2 30 3 18 15 72 -1 96
-28 19 -22 47 -33 47 -17 0 3 -16 36 -37 72 -55 100 -68 103 -118 29z m75 -20
c0 -5 -7 -8 -15 -8 -15 0 -20 21 -8 33 7 7 23 -11 23 -25z"/>
<path d="M1177 433 c-13 -12 -8 -133 6 -133 34 2 121 28 125 38 4 14 -12 15
-56 3 l-32 -10 0 55 c0 46 -3 54 -18 54 -10 0 -22 -3 -25 -7z"/>
<path d="M3642 428 c-20 -20 -14 -74 11 -103 32 -38 106 -46 136 -16 30 30 27
67 -8 102 -25 24 -38 29 -78 29 -27 0 -54 -5 -61 -12z m92 -19 c46 -21 39 -89
-9 -89 -48 0 -76 67 -37 89 21 13 17 13 46 0z"/>
<path d="M648 409 c-29 -16 -23 -75 8 -104 33 -31 103 -35 130 -8 15 16 15 17
-2 23 -11 4 -29 1 -41 -8 -20 -13 -26 -12 -48 2 -53 35 -17 100 39 70 16 -8
38 -14 50 -14 20 1 19 2 -7 25 -30 27 -96 34 -129 14z"/>
<path d="M982 412 c-19 -3 -54 -54 -90 -134 -2 -5 8 -8 22 -8 16 0 26 6 26 14
0 19 77 26 92 9 6 -7 21 -13 34 -13 22 0 22 1 -16 66 -21 36 -40 66 -42 68 -1
1 -13 0 -26 -2z m18 -62 c9 -18 8 -20 -15 -20 -23 0 -24 2 -15 20 6 11 13 20
15 20 2 0 9 -9 15 -20z"/>
<path d="M3840 350 c0 -63 2 -70 20 -70 15 0 20 7 20 25 0 33 20 32 55 -5 16
-16 37 -30 47 -30 24 0 23 9 -8 41 -25 27 -26 27 -5 34 14 4 21 15 21 31 0 30
-31 44 -101 44 l-49 0 0 -70z m110 25 c0 -10 -11 -15 -35 -15 -24 0 -35 5 -35
15 0 10 11 15 35 15 24 0 35 -5 35 -15z"/>
<path d="M4100 349 l0 -70 48 6 c65 9 82 15 82 27 0 7 -16 9 -45 5 l-45 -7 0
55 c0 48 -2 55 -20 55 -18 0 -20 -7 -20 -71z"/>
<path d="M830 340 c0 -63 2 -70 20 -70 18 0 20 7 20 70 0 63 -2 70 -20 70 -18
0 -20 -7 -20 -70z"/>
<path d="M230 317 l0 -63 55 -27 c31 -15 60 -27 66 -27 19 0 -2 20 -42 40 -37
20 -39 22 -39 70 0 39 -4 52 -20 60 -19 10 -20 8 -20 -53z"/>
<path d="M3358 319 c-12 -6 -18 -22 -18 -44 0 -61 96 -128 136 -94 14 12 14
14 -2 26 -13 9 -21 10 -31 2 -21 -18 -63 15 -63 51 0 42 16 46 61 14 44 -30
63 -26 33 7 -30 33 -91 53 -116 38z"/>
<path d="M1403 293 l-43 -15 0 -68 0 -69 48 14 c26 8 50 15 53 15 20 0 59 56
59 84 0 57 -35 69 -117 39z m75 -44 c3 -27 -19 -52 -55 -63 -22 -7 -23 -4 -23
38 0 38 3 45 23 49 39 8 52 2 55 -24z"/>
<path d="M4454 300 c-12 -5 -33 -35 -52 -79 -18 -39 -36 -71 -40 -71 -5 0 -16
8 -26 19 -15 16 -15 19 -1 31 8 7 15 22 15 33 0 18 -4 19 -58 14 -92 -10 -92
-10 -92 -83 0 -57 2 -64 20 -64 16 0 20 7 20 30 0 24 4 30 22 30 12 0 30 -7
40 -16 15 -15 23 -15 63 -4 26 7 47 20 50 30 7 24 58 41 95 33 20 -3 30 -1 30
6 0 10 -34 63 -59 92 -4 4 -15 3 -27 -1z m8 -72 c-15 -15 -24 -6 -16 16 5 12
10 14 17 7 8 -8 8 -14 -1 -23z m-152 -12 c0 -15 -21 -26 -52 -26 -27 0 -18 23
13 31 36 10 39 10 39 -5z"/>
<path d="M380 241 c0 -34 2 -61 4 -61 2 0 12 -3 21 -6 14 -6 16 2 13 57 -2 51
-6 64 -20 67 -16 3 -18 -5 -18 -57z"/>
<path d="M450 217 l0 -63 53 -17 c30 -9 64 -17 76 -17 25 0 38 24 23 43 -6 7
-9 22 -6 33 3 11 -1 26 -9 32 -11 10 -120 52 -134 52 -1 0 -3 -28 -3 -63z
m104 2 c16 -15 -1 -22 -30 -12 -39 13 -46 38 -8 29 16 -4 33 -12 38 -17z m6
-55 c12 -12 12 -14 -5 -14 -37 0 -65 12 -65 27 0 18 47 10 70 -13z"/>
<path d="M3522 219 c3 -53 7 -65 28 -80 38 -28 83 -34 104 -14 13 13 16 31 14
69 -2 42 -6 51 -23 54 -18 2 -20 -3 -20 -47 0 -59 -7 -68 -40 -53 -22 10 -25
18 -25 66 0 50 -9 66 -36 66 -3 0 -4 -28 -2 -61z"/>
<path d="M1223 238 c-14 -19 -73 -124 -73 -132 0 -15 39 -4 45 13 7 24 66 36
93 20 11 -7 27 -9 36 -6 15 6 12 13 -17 59 -34 54 -65 70 -84 46z m37 -54 c0
-8 -9 -14 -20 -14 -18 0 -19 3 -10 20 12 22 30 18 30 -6z"/>
<path d="M640 166 c0 -73 -1 -71 89 -82 42 -4 61 -3 61 5 0 11 -24 19 -75 23
-18 2 -30 9 -30 18 0 11 11 14 48 11 56 -3 64 15 10 24 -54 9 -65 14 -59 23 3
5 28 7 56 4 33 -3 50 -1 50 7 0 12 -19 17 -97 26 l-53 6 0 -65z"/>
<path d="M1058 223 c-34 -3 -48 -8 -48 -19 0 -8 10 -14 25 -14 23 0 25 -3 25
-50 0 -42 3 -50 19 -50 23 0 31 19 31 70 0 35 3 39 30 45 17 4 30 11 30 16 0
9 -18 9 -112 2z"/>
<path d="M3700 161 l0 -68 46 -7 c65 -9 94 -8 94 3 0 6 -20 13 -45 17 l-45 6
0 59 c0 56 -1 59 -25 59 -24 0 -25 -2 -25 -69z"/>
<path d="M4138 222 c-14 -3 -18 -14 -18 -52 0 -51 -16 -74 -47 -68 -14 2 -19
15 -21 56 -3 44 -6 52 -23 52 -18 0 -20 -6 -17 -62 3 -57 5 -63 28 -68 32 -8
89 4 107 23 10 9 13 31 11 68 -3 46 -6 54 -20 51z"/>
<path d="M3830 206 c0 -11 9 -16 30 -16 l30 0 0 -60 c0 -53 2 -60 20 -60 18 0
20 7 20 60 l0 60 30 0 c17 0 30 5 30 10 0 6 -15 10 -34 10 -18 0 -54 3 -80 6
-38 6 -46 4 -46 -10z"/>
<path d="M820 145 c0 -36 2 -65 4 -65 2 0 11 -3 20 -6 12 -5 16 0 16 20 0 38
26 44 59 12 17 -16 38 -26 57 -26 l29 1 -28 25 -29 24 24 20 c19 15 21 22 12
37 -9 14 -26 19 -88 21 l-76 3 0 -66z m120 26 c0 -9 -33 -21 -57 -21 -7 0 -13
7 -13 15 0 10 11 15 35 15 19 0 35 -4 35 -9z"/>
</g>
</svg>
